<svg xmlns="http://www.w3.org/2000/svg" xmlns:xlink="http://www.w3.org/1999/xlink" width="255pt" height="860pt" viewBox="0.00 0.00 254.80 859.80">
<g id="graph0" class="graph" transform="scale(1 1) rotate(0) translate(4 855.8)">
<title>TelegramBotFunctionality</title>
<polygon fill="white" stroke="none" points="-4,4 -4,-855.8 250.8,-855.8 250.8,4 -4,4"></polygon>
<!-- Start -->
<g id="node1" class="node">
<title>Start</title>
<ellipse fill="none" stroke="black" cx="133.65" cy="-833.8" rx="27" ry="18"></ellipse>
<text text-anchor="middle" x="133.65" y="-830.2" font-family="Times,serif" font-size="12.00">Start</text>
</g>
<!-- ReceiveInput -->
<g id="node2" class="node">
<title>ReceiveInput</title>
<polygon fill="none" stroke="black" points="175.14,-778.8 92.17,-778.8 92.17,-742.8 175.14,-742.8 175.14,-778.8"></polygon>
<text text-anchor="middle" x="133.65" y="-757.2" font-family="Times,serif" font-size="12.00">Receive Input</text>
</g>
<!-- InputType -->
<g id="edge1" class="edge">
<title>Start-&gt;ReceiveInput</title>
<path fill="none" stroke="black" d="M133.65,-815.38C133.65,-815.38 133.65,-790.43 133.65,-790.43"></path>
<polygon fill="black" stroke="black" points="133.65,-780.43 138.15,-790.43 133.65,-784.22 133.65,-790.43 133.65,-790.43 133.65,-790.43 133.65,-784.22 129.15,-790.43 133.65,-780.43"></polygon>
</g>
<!-- LinkToBook -->
<g id="node3" class="node">
<title>InputType</title>
<polygon fill="none" stroke="black" points="133.65,-705.8 66.53,-687.8 133.65,-669.8 200.78,-687.8 133.65,-705.8"></polygon>
<text text-anchor="middle" x="133.65" y="-684.2" font-family="Times,serif" font-size="12.00">Input Type?</text>
</g>
<!-- ParsePage -->
<g id="edge2" class="edge">
<title>ReceiveInput-&gt;InputType</title>
<path fill="none" stroke="black" d="M133.65,-742.38C133.65,-742.38 133.65,-717.43 133.65,-717.43"></path>
<polygon fill="black" stroke="black" points="133.65,-707.43 138.15,-717.43 133.65,-711.22 133.65,-717.43 133.65,-717.43 133.65,-717.43 133.65,-711.22 129.15,-717.43 133.65,-707.43"></polygon>
</g>
<!-- ExtractTitle -->
<g id="node4" class="node">
<title>LinkToBook</title>
<polygon fill="none" stroke="black" points="104.66,-617 24.65,-617 24.65,-581 104.66,-581 104.66,-617"></polygon>
<text text-anchor="middle" x="64.65" y="-595.4" font-family="Times,serif" font-size="12.00">Link to Book</text>
</g>
<!-- SearchMetadata -->
<g id="edge3" class="edge">
<title>InputType-&gt;LinkToBook</title>
<path fill="none" stroke="black" d="M85.59,-682.25C85.59,-682.25 85.59,-628.44 85.59,-628.44"></path>
<polygon fill="black" stroke="black" points="85.59,-618.44 90.09,-628.44 85.59,-622.22 85.59,-628.44 85.59,-628.44 85.59,-628.44 85.59,-622.22 81.09,-628.44 85.59,-618.44"></polygon>
<text text-anchor="middle" x="88.88" y="-639.2" font-family="Times,serif" font-size="14.00">Link</text>
</g>
<!-- OfferOptions -->
<g id="node10" class="node">
<title>TitleInput</title>
<polygon fill="none" stroke="black" points="167.49,-563 99.82,-563 99.82,-527 167.49,-527 167.49,-563"></polygon>
<text text-anchor="middle" x="133.65" y="-541.4" font-family="Times,serif" font-size="12.00">Book Title</text>
</g>
<!-- CreatePost -->
<g id="edge4" class="edge">
<title>InputType-&gt;TitleInput</title>
<path fill="none" stroke="black" d="M135.15,-669.71C135.15,-669.71 135.15,-574.61 135.15,-574.61"></path>
<polygon fill="black" stroke="black" points="135.15,-564.61 139.65,-574.61 135.15,-568.39 135.15,-574.61 135.15,-574.61 135.15,-574.61 135.15,-568.39 130.65,-574.61 135.15,-564.61"></polygon>
<text text-anchor="middle" x="146.87" y="-639.2" font-family="Times,serif" font-size="14.00">Title</text>
</g>
<!-- TitleInput -->
<g id="node11" class="node">
<title>FileInput</title>
<polygon fill="none" stroke="black" points="219.65,-617 165.65,-617 165.65,-581 219.65,-581 219.65,-617"></polygon>
<text text-anchor="middle" x="192.65" y="-595.4" font-family="Times,serif" font-size="12.00">File</text>
</g>
<!-- FileInput -->
<g id="edge5" class="edge">
<title>InputType-&gt;FileInput</title>
<path fill="none" stroke="black" d="M183.22,-682.77C183.22,-682.77 183.22,-628.37 183.22,-628.37"></path>
<polygon fill="black" stroke="black" points="183.22,-618.37 187.72,-628.37 183.22,-622.15 183.22,-628.37 183.22,-628.37 183.22,-628.37 183.22,-622.15 178.72,-628.37 183.22,-618.37"></polygon>
<text text-anchor="middle" x="196.54" y="-639.2" font-family="Times,serif" font-size="14.00">File</text>
</g>
<!-- ExtractMetadata -->
<g id="node5" class="node">
<title>ParsePage</title>
<polygon fill="none" stroke="black" points="93.81,-509 25.5,-509 25.5,-473 93.81,-473 93.81,-509"></polygon>
<text text-anchor="middle" x="59.65" y="-487.4" font-family="Times,serif" font-size="12.00">Parse Page</text>
</g>
<!-- EditPost -->
<g id="edge6" class="edge">
<title>LinkToBook-&gt;ParsePage</title>
<path fill="none" stroke="black" d="M59.65,-580.68C59.65,-580.68 59.65,-520.63 59.65,-520.63"></path>
<polygon fill="black" stroke="black" points="59.65,-510.63 64.15,-520.63 59.65,-514.41 59.65,-520.63 59.65,-520.63 59.65,-520.63 59.65,-514.41 55.15,-520.63 59.65,-510.63"></polygon>
</g>
<!-- End -->
<g id="node6" class="node">
<title>ExtractTitle</title>
<polygon fill="none" stroke="black" points="105.31,-401 0,-401 0,-365 105.31,-365 105.31,-401"></polygon>
<text text-anchor="middle" x="52.65" y="-379.4" font-family="Times,serif" font-size="12.00">Extract Book Title</text>
</g>
<!-- ParsePage&#45;&gt;ExtractTitle -->
<g id="edge7" class="edge">
<title>ParsePage-&gt;ExtractTitle</title>
<path fill="none" stroke="black" d="M59.65,-472.68C59.65,-472.68 59.65,-412.63 59.65,-412.63"></path>
<polygon fill="black" stroke="black" points="59.65,-402.63 64.15,-412.63 59.65,-406.41 59.65,-412.63 59.65,-412.63 59.65,-412.63 59.65,-406.41 55.15,-412.63 59.65,-402.63"></polygon>
</g>
<!-- SearchMetadata -->
<g id="node7" class="node">
<title>SearchMetadata</title>
<polygon fill="none" stroke="black" points="181.8,-328 85.51,-328 85.51,-292 181.8,-292 181.8,-328"></polygon>
<text text-anchor="middle" x="133.65" y="-306.4" font-family="Times,serif" font-size="12.00">Search Metadata</text>
</g>
<!-- ExtractTitle&#45;&gt;SearchMetadata -->
<g id="edge8" class="edge">
<title>ExtractTitle-&gt;SearchMetadata</title>
<path fill="none" stroke="black" d="M95.41,-364.58C95.41,-364.58 95.41,-339.63 95.41,-339.63"></path>
<polygon fill="black" stroke="black" points="95.41,-329.63 99.91,-339.63 95.41,-333.42 95.41,-339.63 95.41,-339.63 95.41,-339.63 95.41,-333.42 90.91,-339.63 95.41,-329.63"></polygon>
</g>
<!-- OfferOptions -->
<g id="node8" class="node">
<title>OfferOptions</title>
<polygon fill="none" stroke="black" points="198.97,-255 68.34,-255 68.34,-219 198.97,-219 198.97,-255"></polygon>
<text text-anchor="middle" x="133.65" y="-233.4" font-family="Times,serif" font-size="12.00">Offer Metadata Options</text>
</g>
<!-- SearchMetadata&#45;&gt;OfferOptions -->
<g id="edge9" class="edge">
<title>SearchMetadata-&gt;OfferOptions</title>
<path fill="none" stroke="black" d="M109.58,-291.58C109.58,-291.58 109.58,-266.63 109.58,-266.63"></path>
<polygon fill="black" stroke="black" points="109.58,-256.63 114.08,-266.63 109.58,-260.42 109.58,-266.63 109.58,-266.63 109.58,-266.63 109.58,-260.42 105.08,-266.63 109.58,-256.63"></polygon>
</g>
<!-- SearchMetadata&#45;&gt;OfferOptions -->
<g id="edge12" class="edge">
<title>SearchMetadata-&gt;OfferOptions</title>
<path fill="none" stroke="black" d="M133.65,-291.58C133.65,-291.58 133.65,-266.63 133.65,-266.63"></path>
<polygon fill="black" stroke="black" points="133.65,-256.63 138.15,-266.63 133.65,-260.42 133.65,-266.63 133.65,-266.63 133.65,-266.63 133.65,-260.42 129.15,-266.63 133.65,-256.63"></polygon>
</g>
<!-- SearchMetadata&#45;&gt;OfferOptions -->
<g id="edge16" class="edge">
<title>SearchMetadata-&gt;OfferOptions</title>
<path fill="none" stroke="black" d="M157.73,-291.58C157.73,-291.58 157.73,-266.63 157.73,-266.63"></path>
<polygon fill="black" stroke="black" points="157.73,-256.63 162.23,-266.63 157.73,-260.42 157.73,-266.63 157.73,-266.63 157.73,-266.63 157.73,-260.42 153.23,-266.63 157.73,-256.63"></polygon>
</g>
<!-- CreatePost -->
<g id="node9" class="node">
<title>CreatePost</title>
<polygon fill="none" stroke="black" points="192.98,-182 74.33,-182 74.33,-146 192.98,-146 192.98,-182"></polygon>
<text text-anchor="middle" x="133.65" y="-160.4" font-family="Times,serif" font-size="12.00">Create Beautiful Post</text>
</g>
<!-- OfferOptions&#45;&gt;CreatePost -->
<g id="edge10" class="edge">
<title>OfferOptions-&gt;CreatePost</title>
<path fill="none" stroke="black" d="M163.32,-218.58C163.32,-218.58 163.32,-193.63 163.32,-193.63"></path>
<polygon fill="black" stroke="black" points="163.32,-183.63 167.82,-193.63 163.32,-187.42 163.32,-193.63 163.32,-193.63 163.32,-193.63 163.32,-187.42 158.82,-193.63 163.32,-183.63"></polygon>
</g>
<!-- OfferOptions&#45;&gt;CreatePost -->
<g id="edge13" class="edge">
<title>OfferOptions-&gt;CreatePost</title>
<path fill="none" stroke="black" d="M103.99,-218.58C103.99,-218.58 103.99,-193.63 103.99,-193.63"></path>
<polygon fill="black" stroke="black" points="103.99,-183.63 108.49,-193.63 103.99,-187.42 103.99,-193.63 103.99,-193.63 103.99,-193.63 103.99,-187.42 99.49,-193.63 103.99,-183.63"></polygon>
</g>
<!-- OfferOptions&#45;&gt;CreatePost -->
<g id="edge17" class="edge">
<title>OfferOptions-&gt;CreatePost</title>
<path fill="none" stroke="black" d="M133.65,-218.58C133.65,-218.58 133.65,-193.63 133.65,-193.63"></path>
<polygon fill="black" stroke="black" points="133.65,-183.63 138.15,-193.63 133.65,-187.42 133.65,-193.63 133.65,-193.63 133.65,-193.63 133.65,-187.42 129.15,-193.63 133.65,-183.63"></polygon>
</g>
<!-- EditPost -->
<g id="node13" class="node">
<title>EditPost</title>
<polygon fill="none" stroke="black" points="202.66,-109 64.65,-109 64.65,-73 202.66,-73 202.66,-109"></polygon>
<text text-anchor="middle" x="133.65" y="-87.4" font-family="Times,serif" font-size="12.00">Edit Post in HTML Form</text>
</g>
<!-- CreatePost&#45;&gt;EditPost -->
<g id="edge18" class="edge">
<title>CreatePost-&gt;EditPost</title>
<path fill="none" stroke="black" d="M133.65,-145.58C133.65,-145.58 133.65,-120.63 133.65,-120.63"></path>
<polygon fill="black" stroke="black" points="133.65,-110.63 138.15,-120.63 133.65,-114.42 133.65,-120.63 133.65,-120.63 133.65,-120.63 133.65,-114.42 129.15,-120.63 133.65,-110.63"></polygon>
</g>
<!-- TitleInput&#45;&gt;SearchMetadata -->
<g id="edge11" class="edge">
<title>TitleInput-&gt;SearchMetadata</title>
<path fill="none" stroke="black" d="M126.91,-526.56C126.91,-526.56 126.91,-339.57 126.91,-339.57"></path>
<polygon fill="black" stroke="black" points="126.91,-329.57 131.41,-339.57 126.91,-333.35 126.91,-339.57 126.91,-339.57 126.91,-339.57 126.91,-333.35 122.41,-339.57 126.91,-329.57"></polygon>
</g>
<!-- ExtractMetadata -->
<g id="node12" class="node">
<title>ExtractMetadata</title>
<polygon fill="none" stroke="black" points="246.8,-455 148.51,-455 148.51,-419 246.8,-419 246.8,-455"></polygon>
<text text-anchor="middle" x="197.65" y="-433.4" font-family="Times,serif" font-size="12.00">Extract Metadata</text>
</g>
<!-- FileInput&#45;&gt;ExtractMetadata -->
<g id="edge14" class="edge">
<title>FileInput-&gt;ExtractMetadata</title>
<path fill="none" stroke="black" d="M193.57,-580.73C193.57,-580.73 193.57,-466.67 193.57,-466.67"></path>
<polygon fill="black" stroke="black" points="193.57,-456.67 198.07,-466.67 193.57,-460.45 193.57,-466.67 193.57,-466.67 193.57,-466.67 193.57,-460.45 189.07,-466.67 193.57,-456.67"></polygon>
</g>
<!-- ExtractMetadata&#45;&gt;SearchMetadata -->
<g id="edge15" class="edge">
<title>ExtractMetadata-&gt;SearchMetadata</title>
<path fill="none" stroke="black" d="M165.15,-418.53C165.15,-418.53 165.15,-339.71 165.15,-339.71"></path>
<polygon fill="black" stroke="black" points="165.15,-329.71 169.65,-339.71 165.15,-333.49 165.15,-339.71 165.15,-339.71 165.15,-339.71 165.15,-333.49 160.65,-339.71 165.15,-329.71"></polygon>
</g>
<!-- End -->
<g id="node14" class="node">
<title>End</title>
<ellipse fill="none" stroke="black" cx="133.65" cy="-18" rx="27" ry="18"></ellipse>
<text text-anchor="middle" x="133.65" y="-14.4" font-family="Times,serif" font-size="12.00">End</text>
</g>
<!-- EditPost&#45;&gt;End -->
<g id="edge19" class="edge">
<title>EditPost-&gt;End</title>
<path fill="none" stroke="black" d="M133.65,-72.58C133.65,-72.58 133.65,-47.63 133.65,-47.63"></path>
<polygon fill="black" stroke="black" points="133.65,-37.63 138.15,-47.63 133.65,-41.42 133.65,-47.63 133.65,-47.63 133.65,-47.63 133.65,-41.42 129.15,-47.63 133.65,-37.63"></polygon>
</g>
</g>
</svg>