<svg xmlns="http://www.w3.org/2000/svg" xmlns:xlink="http://www.w3.org/1999/xlink" width="1630pt" height="136pt" viewBox="0.00 0.00 1629.81 136.00">
<g id="graph0" class="graph" transform="scale(1 1) rotate(0) translate(4 132)">
<title>TelegramBotFunctionality</title>
<polygon fill="white" stroke="none" points="-4,4 -4,-132 1625.81,-132 1625.81,4 -4,4"></polygon>
<!-- Start -->
<g id="node1" class="node">
<title>Start</title>
<ellipse fill="none" stroke="black" cx="27" cy="-64" rx="27" ry="18"></ellipse>
<text text-anchor="middle" x="27" y="-60.4" font-family="Times,serif" font-size="12.00">Start</text>
</g>
<!-- ReceiveInput -->
<g id="node2" class="node">
<title>ReceiveInput</title>
<polygon fill="none" stroke="black" points="173.97,-82 91,-82 91,-46 173.97,-46 173.97,-82"></polygon>
<text text-anchor="middle" x="132.49" y="-60.4" font-family="Times,serif" font-size="12.00">Receive Input</text>
</g>
<!-- InputType -->
<g id="edge1" class="edge">
<title>Start-&gt;ReceiveInput</title>
<path fill="none" stroke="black" d="M54.28,-64C61.09,-64 68.54,-64 79.51,-64"></path>
<polygon fill="black" stroke="black" points="89.43,-64 79.43,-68.5 85.65,-64 79.43,-64 79.43,-64 79.43,-64 85.65,-64 79.43,-59.5 89.43,-64"></polygon>
</g>
<!-- LinkToBook -->
<g id="node3" class="node">
<title>InputType</title>
<polygon fill="none" stroke="black" points="278.1,-82 210.97,-64 278.1,-46 345.22,-64 278.1,-82"></polygon>
<text text-anchor="middle" x="278.1" y="-60.4" font-family="Times,serif" font-size="12.00">Input Type?</text>
</g>
<!-- ParsePage -->
<g id="edge2" class="edge">
<title>ReceiveInput-&gt;InputType</title>
<path fill="none" stroke="black" d="M174.24,-64C181.1,-64 188.68,-64 198.37,-64"></path>
<polygon fill="black" stroke="black" points="208.07,-64 198.07,-68.5 204.28,-64 198.07,-64 198.07,-64 198.07,-64 204.28,-64 198.07,-59.5 208.07,-64"></polygon>
</g>
<!-- ExtractTitle -->
<g id="node4" class="node">
<title>LinkToBook</title>
<polygon fill="none" stroke="black" points="487.66,-128 407.66,-128 407.66,-92 487.66,-92 487.66,-128"></polygon>
<text text-anchor="middle" x="447.66" y="-106.4" font-family="Times,serif" font-size="12.00">Link to Book</text>
</g>
<!-- SearchMetadata -->
<g id="edge3" class="edge">
<title>InputType-&gt;LinkToBook</title>
<path fill="none" stroke="black" d="M302.36,-75.84C325.94,-86.7 342.48,-91.03 396.3,-100.84"></path>
<polygon fill="black" stroke="black" points="405.99,-102.59 395.35,-105.24 402.27,-101.92 396.15,-100.81 396.15,-100.81 396.15,-100.81 402.27,-101.92 396.95,-96.38 405.99,-102.59"></polygon>
<text text-anchor="middle" x="376.44" y="-111.2" font-family="Times,serif" font-size="14.00">Link</text>
</g>
<!-- OfferOptions -->
<g id="node10" class="node">
<title>TitleInput</title>
<polygon fill="none" stroke="black" points="573.32,-82 505.66,-82 505.66,-46 573.32,-46 573.32,-82"></polygon>
<text text-anchor="middle" x="539.49" y="-60.4" font-family="Times,serif" font-size="12.00">Book Title</text>
</g>
<!-- CreatePost -->
<g id="edge4" class="edge">
<title>InputType-&gt;TitleInput</title>
<path fill="none" stroke="black" d="M347.02,-64C377.21,-64 413.02,-64 494.6,-64"></path>
<polygon fill="black" stroke="black" points="504.11,-64 494.11,-68.5 500.33,-64 494.11,-64 494.11,-64 494.11,-64 500.33,-64 494.11,-59.5 504.11,-64"></polygon>
<text text-anchor="middle" x="376.44" y="-68.2" font-family="Times,serif" font-size="14.00">Title</text>
</g>
<!-- TitleInput -->
<g id="node11" class="node">
<title>FileInput</title>
<polygon fill="none" stroke="black" points="474.66,-36 420.66,-36 420.66,0 474.66,0 474.66,-36"></polygon>
<text text-anchor="middle" x="447.66" y="-14.4" font-family="Times,serif" font-size="12.00">File</text>
</g>
<!-- FileInput -->
<g id="edge5" class="edge">
<title>InputType-&gt;FileInput</title>
<path fill="none" stroke="black" d="M302.36,-52.16C327.79,-40.44 345.03,-36.33 409.67,-24.75"></path>
<polygon fill="black" stroke="black" points="419.26,-23.03 410.21,-29.22 415.54,-23.7 409.42,-24.79 409.42,-24.79 409.42,-24.79 415.54,-23.7 408.62,-20.36 419.26,-23.03"></polygon>
<text text-anchor="middle" x="376.44" y="-25.2" font-family="Times,serif" font-size="14.00">File</text>
</g>
<!-- ExtractMetadata -->
<g id="node5" class="node">
<title>ParsePage</title>
<polygon fill="none" stroke="black" points="659.64,-128 591.32,-128 591.32,-92 659.64,-92 659.64,-128"></polygon>
<text text-anchor="middle" x="625.48" y="-106.4" font-family="Times,serif" font-size="12.00">Parse Page</text>
</g>
<!-- EditPost -->
<g id="edge6" class="edge">
<title>LinkToBook-&gt;ParsePage</title>
<path fill="none" stroke="black" d="M487.79,-113.79C508.36,-115 529.45,-114.44 580.27,-112.12"></path>
<polygon fill="black" stroke="black" points="589.99,-111.67 580.21,-116.63 586.22,-111.85 580,-112.13 580,-112.13 580,-112.13 586.22,-111.85 579.8,-107.64 589.99,-111.67"></polygon>
</g>
<!-- End -->
<g id="node6" class="node">
<title>ExtractTitle</title>
<polygon fill="none" stroke="black" points="899.24,-128 793.93,-128 793.93,-92 899.24,-92 899.24,-128"></polygon>
<text text-anchor="middle" x="846.59" y="-106.4" font-family="Times,serif" font-size="12.00">Extract Book Title</text>
</g>
<!-- ParsePage&#45;&gt;ExtractTitle -->
<g id="edge7" class="edge">
<title>ParsePage-&gt;ExtractTitle</title>
<path fill="none" stroke="black" d="M659.93,-120.49C694.38,-129.88 715.6,-129.64 782.79,-119.79"></path>
<polygon fill="black" stroke="black" points="792.3,-118.38 783.07,-124.3 788.56,-118.94 782.41,-119.85 782.41,-119.85 782.41,-119.85 788.56,-118.94 781.75,-115.4 792.3,-118.38"></polygon>
</g>
<!-- SearchMetadata -->
<g id="node7" class="node">
<title>SearchMetadata</title>
<polygon fill="none" stroke="black" points="1032.53,-82 936.24,-82 936.24,-46 1032.53,-46 1032.53,-82"></polygon>
<text text-anchor="middle" x="984.39" y="-60.4" font-family="Times,serif" font-size="12.00">Search Metadata</text>
</g>
<!-- ExtractTitle&#45;&gt;SearchMetadata -->
<g id="edge8" class="edge">
<title>ExtractTitle-&gt;SearchMetadata</title>
<path fill="none" stroke="black" d="M899.68,-100.59C922.76,-96.16 936.11,-92.66 947.57,-87.47"></path>
<polygon fill="black" stroke="black" points="956.27,-82.97 949.46,-91.56 952.91,-84.71 947.39,-87.57 947.39,-87.57 947.39,-87.57 952.91,-84.71 945.32,-83.57 956.27,-82.97"></polygon>
</g>
<!-- OfferOptions -->
<g id="node8" class="node">
<title>OfferOptions</title>
<polygon fill="none" stroke="black" points="1200.16,-82 1069.53,-82 1069.53,-46 1200.16,-46 1200.16,-82"></polygon>
<text text-anchor="middle" x="1134.85" y="-60.4" font-family="Times,serif" font-size="12.00">Offer Metadata Options</text>
</g>
<!-- SearchMetadata&#45;&gt;OfferOptions -->
<g id="edge9" class="edge">
<title>SearchMetadata-&gt;OfferOptions</title>
<path fill="none" stroke="black" d="M1032.82,-76.71C1040.98,-77.21 1049.61,-77.47 1058.27,-77.5"></path>
<polygon fill="black" stroke="black" points="1068,-77.41 1058.04,-82 1064.22,-77.45 1058,-77.5 1058,-77.5 1058,-77.5 1064.22,-77.45 1057.97,-73 1068,-77.41"></polygon>
</g>
<!-- SearchMetadata&#45;&gt;OfferOptions -->
<g id="edge12" class="edge">
<title>SearchMetadata-&gt;OfferOptions</title>
<path fill="none" stroke="black" d="M1032.82,-64C1040.98,-64 1049.61,-64 1058.27,-64"></path>
<polygon fill="black" stroke="black" points="1068,-64 1058,-68.5 1064.22,-64 1058,-64 1058,-64 1058,-64 1064.22,-64 1058,-59.5 1068,-64"></polygon>
</g>
<!-- SearchMetadata&#45;&gt;OfferOptions -->
<g id="edge16" class="edge">
<title>SearchMetadata-&gt;OfferOptions</title>
<path fill="none" stroke="black" d="M1032.82,-51.29C1040.98,-50.79 1049.61,-50.53 1058.27,-50.5"></path>
<polygon fill="black" stroke="black" points="1068,-50.59 1057.97,-55 1064.22,-50.55 1058,-50.5 1058,-50.5 1058,-50.5 1064.22,-50.55 1058.04,-46 1068,-50.59"></polygon>
</g>
<!-- CreatePost -->
<g id="node9" class="node">
<title>CreatePost</title>
<polygon fill="none" stroke="black" points="1355.8,-82 1237.16,-82 1237.16,-46 1355.8,-46 1355.8,-82"></polygon>
<text text-anchor="middle" x="1296.48" y="-60.4" font-family="Times,serif" font-size="12.00">Create Beautiful Post</text>
</g>
<!-- OfferOptions&#45;&gt;CreatePost -->
<g id="edge10" class="edge">
<title>OfferOptions-&gt;CreatePost</title>
<path fill="none" stroke="black" d="M1200.59,-77.29C1208.82,-77.52 1217.27,-77.56 1225.58,-77.41"></path>
<polygon fill="black" stroke="black" points="1235.56,-77.12 1225.7,-81.91 1231.78,-77.23 1225.57,-77.41 1225.57,-77.41 1225.57,-77.41 1231.78,-77.23 1225.44,-72.91 1235.56,-77.12"></polygon>
</g>
<!-- OfferOptions&#45;&gt;CreatePost -->
<g id="edge13" class="edge">
<title>OfferOptions-&gt;CreatePost</title>
<path fill="none" stroke="black" d="M1200.59,-64C1208.82,-64 1217.27,-64 1225.58,-64"></path>
<polygon fill="black" stroke="black" points="1235.56,-64 1225.56,-68.5 1231.78,-64 1225.56,-64 1225.56,-64 1225.56,-64 1231.78,-64 1225.56,-59.5 1235.56,-64"></polygon>
</g>
<!-- OfferOptions&#45;&gt;CreatePost -->
<g id="edge17" class="edge">
<title>OfferOptions-&gt;CreatePost</title>
<path fill="none" stroke="black" d="M1200.59,-50.71C1208.82,-50.48 1217.27,-50.44 1225.58,-50.59"></path>
<polygon fill="black" stroke="black" points="1235.56,-50.88 1225.44,-55.09 1231.78,-50.77 1225.57,-50.59 1225.57,-50.59 1225.57,-50.59 1231.78,-50.77 1225.7,-46.09 1235.56,-50.88"></polygon>
</g>
<!-- EditPost -->
<g id="node13" class="node">
<title>EditPost</title>
<polygon fill="none" stroke="black" points="1530.81,-82 1392.8,-82 1392.8,-46 1530.81,-46 1530.81,-82"></polygon>
<text text-anchor="middle" x="1461.81" y="-60.4" font-family="Times,serif" font-size="12.00">Edit Post in HTML Form</text>
</g>
<!-- CreatePost&#45;&gt;EditPost -->
<g id="edge18" class="edge">
<title>CreatePost-&gt;EditPost</title>
<path fill="none" stroke="black" d="M1356.25,-64C1365.98,-64 1374.32,-64 1381.64,-64"></path>
<polygon fill="black" stroke="black" points="1391.49,-64 1381.49,-68.5 1387.7,-64 1381.49,-64 1381.49,-64 1381.49,-64 1387.7,-64 1381.49,-59.5 1391.49,-64"></polygon>
</g>
<!-- TitleInput&#45;&gt;SearchMetadata -->
<g id="edge11" class="edge">
<title>TitleInput-&gt;SearchMetadata</title>
<path fill="none" stroke="black" d="M573.55,-64C667.96,-64 697.48,-64 924.84,-64"></path>
<polygon fill="black" stroke="black" points="934.59,-64 924.59,-68.5 930.81,-64 924.59,-64 924.59,-64 924.59,-64 930.81,-64 924.59,-59.5 934.59,-64"></polygon>
</g>
<!-- ExtractMetadata -->
<g id="node12" class="node">
<title>ExtractMetadata</title>
<polygon fill="none" stroke="black" points="775.93,-44 677.64,-44 677.64,-8 775.93,-8 775.93,-44"></polygon>
<text text-anchor="middle" x="726.79" y="-22.4" font-family="Times,serif" font-size="12.00">Extract Metadata</text>
</g>
<!-- FileInput&#45;&gt;ExtractMetadata -->
<g id="edge14" class="edge">
<title>FileInput-&gt;ExtractMetadata</title>
<path fill="none" stroke="black" d="M474.79,-16.03C527.16,-12.44 549.44,-13.1 666.54,-21.59"></path>
<polygon fill="black" stroke="black" points="676.19,-22.29 665.89,-26.05 672.42,-22.01 666.21,-21.56 666.21,-21.56 666.21,-21.56 672.42,-22.01 666.54,-17.08 676.19,-22.29"></polygon>
</g>
<!-- ExtractMetadata&#45;&gt;SearchMetadata -->
<g id="edge15" class="edge">
<title>ExtractMetadata-&gt;SearchMetadata</title>
<path fill="none" stroke="black" d="M776.27,-25.66C869.06,-25.21 898.58,-27.01 935.36,-41.45"></path>
<polygon fill="black" stroke="black" points="944.31,-45.16 933.35,-45.49 940.82,-43.71 935.08,-41.33 935.08,-41.33 935.08,-41.33 940.82,-43.71 936.8,-37.17 944.31,-45.16"></polygon>
</g>
<!-- End -->
<g id="node14" class="node">
<title>End</title>
<ellipse fill="none" stroke="black" cx="1594.81" cy="-64" rx="27" ry="18"></ellipse>
<text text-anchor="middle" x="1594.81" y="-60.4" font-family="Times,serif" font-size="12.00">End</text>
</g>
<!-- EditPost&#45;&gt;End -->
<g id="edge19" class="edge">
<title>EditPost-&gt;End</title>
<path fill="none" stroke="black" d="M1531.26,-64C1541.56,-64 1549.33,-64 1556.27,-64"></path>
<polygon fill="black" stroke="black" points="1566.23,-64 1556.23,-68.5 1562.45,-64 1556.23,-64 1556.23,-64 1556.23,-64 1562.45,-64 1556.23,-59.5 1566.23,-64"></polygon>
</g>
</g>
</svg>